<svg width="22" height="34" viewBox="0 0 22 34" fill="none" xmlns="http://www.w3.org/2000/svg">
<path d="M11.3775 8.09796C10.5506 8.09796 9.87671 9.43277 9.87671 11.0872C9.87671 12.7348 10.5506 14.0757 11.3775 14.0757C12.1989 14.0757 12.8714 12.7348 12.8714 11.0872C12.8707 9.43277 12.1982 8.09796 11.3775 8.09796Z" fill="#0C76D8"/>
<path d="M6.38964 3.97248C9.40341 3.97248 10.624 4.20028 10.624 6.45647H12.1248C12.1248 2.47787 8.80977 2.47787 6.39033 2.47787C3.38337 2.47787 2.15596 2.25619 2.15596 0H0.660645C0.660645 3.97248 3.97632 3.97248 6.38964 3.97248Z" fill="#0C76D8"/>
<path d="M14.1417 6.45647C14.2839 6.88623 14.3668 7.35066 14.3668 7.83753V14.33C14.3668 16.1531 13.3047 17.6688 11.9134 17.9931C11.9161 18.0142 11.9277 18.0332 11.9277 18.0611V23.2766C11.9277 23.5792 11.6808 23.8274 11.3721 23.8274C11.0695 23.8274 10.822 23.5792 10.822 23.2766V18.0611C10.822 18.0332 10.8349 18.0149 10.8369 17.9931C9.44566 17.6688 8.38282 16.1531 8.38282 14.33V7.83753C8.38282 7.35134 8.4651 6.88623 8.6079 6.45647C4.48914 7.54173 1.40942 11.2769 1.40942 15.726V24.3728C1.40874 29.6678 5.74102 34 11.0348 34H11.7141C17.0086 34 21.3402 29.6678 21.3402 24.3728V15.726C21.3402 11.2769 18.2598 7.54173 14.1417 6.45647Z" fill="#0C76D8"/>
</svg>
